<?xml version="1.0" standalone="no"?>
<!DOCTYPE svg PUBLIC "-//W3C//DTD SVG 20010904//EN"
 "http://www.w3.org/TR/2001/REC-SVG-20010904/DTD/svg10.dtd">
<svg version="1.0" xmlns="http://www.w3.org/2000/svg"
 width="35.93" height="32" viewBox="0 0 256 228"
 preserveAspectRatio="xMidYMid meet">
<metadata>
Created by potrace 1.16, written by Peter Selinger 2001-2019
</metadata>
<defs>
  <linearGradient id="myGradient" x1="0%" y1="100%" x2="0%" y2="0%">
    <stop offset="40%"  stop-color="#DB01FF" />
    <stop offset="100%" stop-color="#3636FF" />
  </linearGradient>
</defs>
<g transform="translate(0.000000,198.000000) scale(0.100000,-0.100000)"
fill="url(#myGradient)" stroke="none">
<path d="M570 1926 c-233 -83 -369 -218 -426 -427 -25 -88 -25 -298 0 -388 20
-75 66 -169 109 -226 16 -22 92 -101 167 -175 148 -145 180 -193 199 -292 22
-123 -21 -238 -130 -343 -37 -36 -63 -65 -58 -65 20 0 135 43 193 72 208 105
317 279 333 527 10 165 -40 349 -128 465 -18 22 -94 102 -169 176 -148 145
-180 193 -199 292 -22 124 20 237 128 341 38 37 64 67 58 67 -7 0 -41 -11 -77
-24z"/>
<path d="M1421 1888 c44 -43 77 -87 100 -134 31 -62 34 -77 34 -154 -1 -133
-24 -173 -198 -345 -186 -183 -248 -275 -282 -417 -19 -83 -19 -283 0 -367 46
-193 183 -342 385 -420 136 -53 139 -52 62 25 -42 42 -80 92 -98 129 -26 53
-29 70 -29 155 0 138 18 169 195 345 146 144 205 219 245 308 77 175 73 436
-9 602 -65 131 -180 231 -337 294 -138 55 -143 53 -68 -21z"/>
</g>
</svg>
